<?xml version="1.0" standalone="no"?>
<!DOCTYPE svg PUBLIC "-//W3C//DTD SVG 1.1//EN" "http://www.w3.org/Graphics/SVG/1.1/DTD/svg11.dtd" >
<svg xmlns="http://www.w3.org/2000/svg">
<metadata>Generated by IcoMoon</metadata>
<defs>
<font id="icomoon" horiz-adv-x="1024">
<font-face units-per-em="1024" ascent="960" descent="-64" />
<missing-glyph horiz-adv-x="1024" />
<glyph unicode="&#x20;" horiz-adv-x="512" d="" />
<glyph unicode="&#x22c7;" glyph-name="funders" d="M661.899 437.003l-0.911 0.886c-11.295 12.534-30.177 15.263-41.452 16.886-3.845 0.553-6.886 0.993-9.272 1.736l-6.948 2.171 0.497 7.26c0.486 7.020-4.536 16.108-11.674 21.146l-19.528 13.768 23.716 2.903c6.958 0.855 12.17 5.606 12.124 11.049-0.067 7.716-11.305 16.681-36.291 19.333l-10.081 1.070 2.028 9.923c0.225 1.126 0.317 1.946 0.343 2.504-2.068 0.927-6.093 2.826-7.726 7.695l-2.232 6.671 0.282 0.179c-0.64 0.476-1.26 0.947-1.818 1.352-4.332 3.195-8.801 6.497-11.464 10.67l-5.166 8.12 8.335 4.813c1.162 0.666 2.038 1.239 2.698 1.71-7.67 6.456-35.579 18.831-52.915 26.527l-9.329 4.142 3.174 5.54c-9.708 11.515-57.421 38.477-66.985 38.799 0.010 0 0.010 0 0.010 0 0.138 0 0.748 0.020 1.592 0.323l-7.148 16.957c1.393 0.686 2.161 1.244 2.545 1.597-2.519 5.535-25.262 19.287-55.173 19.287-11.023 0-20.854-1.961-29.204-5.832l-2.053-0.676c-20.116-4.060-32.579-10.153-37.033-18.109-3.118-5.581-2.79-13.087 1.055-23.603l0.691-1.9-0.169-2.028c-1.853-22.39 16.568-63.063 42.245-79.99l1.889-1.659c25.083-28.948 64.44-56.883 77.88-58.614l2.801-0.358 2.12-1.879c13.194-11.653 30.428-17.403 41.825-21.217 5.919-1.971 10.204-3.4 13.256-5.309l1.562-0.968 1.060-1.505c5.668-7.967 8.392-16.394 12.15-28.068 7.977-24.76 21.248-65.971 78.019-157.286 8.817-0.63 17.633-0.957 26.291-0.957 94.367 0 174.587 37.729 207.964 96.932-23.373 8.458-47.933 15.007-69.919 20.854-33.859 9.016-60.59 16.128-73.661 27.156zM745.969 617.897c-153.513 148.188-373.161 216.842-490.578 153.339-117.427-63.468-88.177-235.044 65.321-383.222 153.503-148.163 373.13-216.832 490.563-153.339 117.432 63.498 88.192 235.059-65.306 383.222zM826.748 390.068c-33.132-70.738-123.121-116.439-229.238-116.439-10.675 0-21.581 0.471-32.425 1.388l-4.588 0.389-2.442 3.907c-60.063 96-74.045 139.412-82.406 165.345-3.118 9.713-5.146 15.974-8.428 21.238-1.935 0.794-5.156 1.874-7.88 2.785-12.293 4.096-30.618 10.214-46.213 23.178-22.016 5.115-62.1 36.48-85.688 63.36-27.93 19.133-50.959 63.032-49.521 94.126-5.074 14.874-4.797 27.013 0.84 37.069 7.204 12.861 23.045 21.678 48.425 26.957 10.557 4.7 22.646 7.086 35.948 7.086 30.915 0 68.849-14.612 73.339-34.15 0.328-1.464 0.778-4.516-0.118-8.069 23.511-9.37 61.599-32.717 69.187-45.793 0.461-0.799 0.835-1.577 1.147-2.33 45.005-20.040 59.812-28.037 60.483-40.796 0.236-4.296-1.439-7.813-3.727-10.604 0.164-0.113 0.317-0.23 0.461-0.338 6.221-4.588 12.646-9.324 12.826-16.686 2.591-2.043 5.12-5.228 5.893-10.383 40.689-7.004 44.211-29.307 44.262-36.337 0.087-9.641-5.028-18.36-13.087-23.839 3.968-5.535 6.733-11.812 7.885-18.033 0.159-0.020 0.323-0.046 0.486-0.067 12.718-1.833 36.28-5.238 52.040-22.277 10.26-8.212 37.386-15.447 66.084-23.096 25.482-6.784 54.359-14.469 81.48-25.098l9.149-3.579-4.173-8.914zM172.816 694.626l-44.288-81.592c-33.234-235.3 400.276-551.788 623.206-459.684l71.081 68.096c-243.983-132.536-709.048 205.307-649.999 473.18z" />
<glyph unicode="&#x233e;" glyph-name="search" d="M856.899 606.87c22.508-46.899 55.757-77.722 74.225-68.838 18.493 8.868 15.242 54.083-7.286 100.977-22.508 46.909-55.741 77.716-74.235 68.844-18.499-8.883-15.242-54.098 7.296-100.982zM935.455 485.665v0c-37.11 0-82.258 42.122-112.348 104.801-16.358 34.084-25.626 69.289-26.086 99.118-0.517 33.311 10.071 56.863 29.804 66.33 5.842 2.806 12.268 4.229 19.082 4.229 37.1 0 82.243-42.122 112.338-104.812 16.358-34.079 25.626-69.279 26.086-99.113 0.522-33.306-10.066-56.863-29.788-66.335-5.852-2.801-12.273-4.219-19.087-4.219zM845.906 734.543c-2.99 0-5.612-0.558-8.003-1.71-9.912-4.751-15.626-20.772-15.278-42.854 0.399-26.214 8.771-57.62 23.567-88.438 28.145-58.639 67-90.281 89.272-90.281v0c2.995 0 5.617 0.558 8.008 1.705 9.907 4.751 15.616 20.777 15.268 42.854-0.404 26.214-8.776 57.615-23.572 88.428-28.15 58.655-67 90.296-89.262 90.296zM529.618 548.825c-3.553-50.381 22.277-108.396 63.908-141.501l-206.218-83.395c-49.167 6.753-83.072 77.819-59.121 119.158l201.431 105.738zM309.54 422.873l-159.022-66.929c-16.63-41.201-0.614-82.693 45.507-99.758-2.109 0.748 156.856 67.379 156.856 67.379-36.454 19.912-53.422 61.184-43.341 99.308zM137.088 356.984c-97.94 39.854 0.594-221.128 47.8-111.022-46.684 17.321-65.116 64.338-47.8 111.022zM788.874 722.127l-227.789-117.847c-47.329-65.679 24.325-201.349 87.501-208.998l244.065 92.068c-78.822 44.974-125.158 162.806-103.777 234.778z" />
<glyph unicode="&#x25a3;" glyph-name="resourceset" d="M68.726 772.147l555.484 118.569 331.873-162.391-547.753-142.418zM419.282 563.994l543.242 142.413v-180.751l-543.242-131.471zM61.476 753.613l331.392-186.875v-175.293l-331.392 189.624zM99.492 534.354v-350.556l293.376-170.281v353.285zM419.282 369.055l508.764 125.348v-366.996l-508.764-122.112z" />
<glyph unicode="&#x2638;" glyph-name="artifact" d="M511.886 137.414c-170.865 0-309.873 139.003-309.873 309.868 0 170.86 139.008 309.868 309.873 309.868 170.86 0 309.868-139.003 309.868-309.868s-139.008-309.868-309.868-309.868zM511.886 726.429c-153.928 0-279.153-125.225-279.153-279.148s125.225-279.148 279.153-279.148c153.917 0 279.148 125.225 279.148 279.148s-125.225 279.148-279.148 279.148zM422.787 447.282c0 49.219 39.869 89.088 89.098 89.088 49.219 0 89.098-39.869 89.098-89.088 0-49.229-39.88-89.093-89.098-89.093-49.229 0-89.098 39.864-89.098 89.093zM588.409 481.478c0 0 6.328-14.93 15.8-12.375 5.458 1.454 9.032 4.465 10.691 15.821 4.803-7.46 13.481-4.567 15.16 2.785 30.956-4.009 47.882 12.145 59.361 27.617 6.559 8.914 18.371-3.671 25.718 7.142 4.454-3.907 9.472-3.241 14.474 3.22 3.011 3.794 7.363-4.219 11.146 2.115 0 0 106.47 47.109 113.93 52.019 8.238 1.556 13.261 12.252 13.261 12.252s11.581 3.896 17.362 13.578c49.905 3.569 65.157 19.277 65.28 34.642-13.486 15.037-35.308 15.037-72.172-18.038-10.921 2.565-21.719-3.011-21.719-3.011s-11.249 3.901-18.048-0.896c-8.678-2.002-110.592-59.244-110.592-59.244-7.352 1.669-4.572-7.009-9.354-6.467-8.131 0.783-12.027-2.33-12.365-8.243-12.913 2.345-12.129-14.909-23.168-13.466-19.144 2.565-42.537 1.679-61.353-23.388-6.579 3.896-14.7-0.338-12.703-9.021-9.344 6.676-14.024 6.349-18.934 3.338-8.458-5.012-2.227-19.159-2.227-19.159zM435.705 481.478c0 0-6.349-14.93-15.816-12.375-5.571 1.454-9.021 4.465-10.691 15.821-4.905-7.46-13.588-4.567-15.252 2.785-30.853-4.009-47.785 12.145-59.259 27.617-6.676 8.914-18.371-3.671-25.836 7.142-4.449-3.907-9.354-3.241-14.474 3.22-2.898 3.794-7.245-4.219-11.141 2.115 0 0-106.358 47.109-113.93 52.019-8.243 1.556-13.143 12.252-13.143 12.252s-11.587 3.896-17.377 13.578c-50.012 3.569-65.27 19.277-65.377 34.642 13.583 15.037 35.308 15.037 72.172-18.038 11.023 2.565 21.827-3.011 21.827-3.011s11.141 3.901 17.94-0.896c8.796-2.002 110.7-59.244 110.7-59.244 7.235 1.669 4.449-7.009 9.242-6.467 8.238 0.783 12.145-2.33 12.472-8.243 12.923 2.345 12.032-14.909 23.060-13.466 19.149 2.565 42.66 1.679 61.476-23.388 6.461 3.896 14.705-0.338 12.692-9.021 9.247 6.676 13.921 6.349 18.826 3.338 8.463-5.012 2.345-19.159 2.345-19.159zM588.409 414.534c0 0 6.328 14.925 15.8 12.37 5.458-1.444 9.032-4.454 10.691-15.821 4.803 7.455 13.481 4.577 15.16-2.78 30.956 4.004 47.882-12.14 59.361-27.628 6.559-8.909 18.371 3.686 25.718-7.127 4.454 3.896 9.472 3.231 14.474-3.236 3.011-3.779 7.363 4.234 11.146-2.109 0 0 106.47-47.109 113.93-52.019 8.238-1.556 13.261-12.242 13.261-12.242s11.581-3.907 17.362-13.578c49.905-3.456 65.157-19.169 65.28-34.642-13.486-15.037-35.308-15.037-72.172 18.033-10.921-2.565-21.719 3.011-21.719 3.011s-11.249-3.789-18.048 0.993c-8.678 1.9-110.592 59.141-110.592 59.141-7.352-1.669-4.572 7.020-9.354 6.467-8.131-0.773-12.027 2.33-12.365 8.233-12.913-2.232-12.129 14.93-23.168 13.486-19.144-2.565-42.537-1.69-61.353 23.378-6.579-3.896-14.7 0.338-12.703 9.032-9.344-6.697-14.024-6.349-18.934-3.348-8.458 5.125-2.227 19.159-2.227 19.159zM435.705 414.534c0 0-6.349 14.925-15.816 12.37-5.571-1.444-9.021-4.454-10.691-15.821-4.905 7.455-13.588 4.577-15.252-2.78-30.853 4.004-47.785-12.14-59.259-27.628-6.676-8.909-18.371 3.686-25.836-7.127-4.449 3.896-9.354 3.231-14.474-3.236-2.898-3.779-7.245 4.234-11.141-2.109 0 0-106.358-47.109-113.93-52.019-8.243-1.556-13.143-12.242-13.143-12.242s-11.587-3.907-17.377-13.578c-50.012-3.456-65.27-19.169-65.377-34.642 13.583-15.037 35.308-15.037 72.172 18.033 11.023-2.565 21.827 3.011 21.827 3.011s11.141-3.789 17.94 0.993c8.796 1.9 110.7 59.141 110.7 59.141 7.235-1.669 4.449 7.020 9.242 6.467 8.238-0.773 12.145 2.33 12.472 8.233 12.923-2.232 12.032 14.93 23.060 13.486 19.149-2.565 42.66-1.69 61.476 23.378 6.461-3.896 14.705 0.338 12.692 9.032 9.247-6.697 13.921-6.349 18.826-3.348 8.463 5.125 2.345 19.159 2.345 19.159zM545.524 371.66c0 0-14.92-6.359-12.365-15.821 1.449-5.565 4.454-9.021 15.821-10.691-7.578-4.792-4.69-13.476 2.78-15.15-4.004-30.966 12.14-47.887 27.622-59.366 8.904-6.564-3.681-18.36 7.132-25.713-3.896-4.465-3.231-9.472 3.231-14.602 3.779-2.893-4.342-7.235 2.115-11.136 0 0 47.109-106.363 52.009-113.935 1.556-8.131 12.252-13.138 12.252-13.138s3.907-11.581 13.578-17.382c3.466-50.002 19.164-65.152 34.652-65.372 15.037 13.588 15.037 35.42-18.043 72.172 2.447 11.023-3.011 21.832-3.011 21.832s3.779 11.249-1.004 17.93c-1.894 8.801-59.141 110.705-59.141 110.705 1.679 7.357-7.014 4.567-6.564 9.247 0.886 8.243-2.243 12.14-8.136 12.483 2.243 12.908-15.037 12.017-13.476 23.050 2.452 19.159 1.669 42.66-23.501 61.476 4.014 6.456-0.22 14.7-9.016 12.692 6.789 9.354 6.344 13.921 3.446 18.929-5.115 8.468-19.159 2.232-19.159 2.232zM545.524 524.353c0 0-14.92 6.349-12.365 15.821 1.449 5.565 4.454 9.011 15.821 10.68-7.578 4.803-4.69 13.481 2.78 15.15-4.004 30.966 12.14 47.892 27.622 59.372 8.904 6.559-3.681 18.365 7.132 25.713-3.896 4.46-3.231 9.467 3.231 14.597 3.779 2.893-4.342 7.235 2.115 11.141 0 0 47.109 106.358 52.009 113.93 1.556 8.141 12.252 13.143 12.252 13.143s3.907 11.576 13.578 17.377c3.466 50.012 19.164 65.157 34.652 65.372 15.037-13.583 15.037-35.41-18.043-72.177 2.447-11.013-3.011-21.827-3.011-21.827s3.779-11.238-1.004-17.93c-1.894-8.791-59.141-110.7-59.141-110.7 1.679-7.363-7.014-4.454-6.564-9.242 0.886-8.253-2.243-12.14-8.136-12.483 2.243-12.913-15.037-12.022-13.476-23.055 2.452-19.154 1.669-42.655-23.501-61.481 4.014-6.456-0.22-14.689-9.016-12.687 6.789-9.364 6.344-13.921 3.446-18.934-5.115-8.463-19.159-2.237-19.159-2.237zM478.58 371.66c0 0 14.817-6.359 12.365-15.821-1.449-5.565-4.454-9.021-15.811-10.691 7.46-4.792 4.562-13.476-2.79-15.15 4.009-30.966-12.145-47.887-27.617-59.366-8.914-6.564 3.671-18.36-7.132-25.713 3.901-4.465 3.231-9.472-3.236-14.602-3.779-2.893 4.234-7.235-2.109-11.136 0 0-47.114-106.363-52.014-113.935-1.556-8.131-12.252-13.138-12.252-13.138s-3.907-11.581-13.594-17.382c-3.553-50.002-19.261-65.152-34.632-65.372-15.043 13.588-15.043 35.42 18.043 72.172-2.565 11.023 3.005 21.832 3.005 21.832s-3.901 11.249 0.896 17.93c2.002 8.801 59.244 110.705 59.244 110.705-1.669 7.357 7.014 4.567 6.461 9.247-0.778 8.243 2.227 12.14 8.238 12.483-2.34 12.908 14.93 12.017 13.471 23.050-2.56 19.159-1.659 42.66 23.393 61.476-3.907 6.456 0.333 14.7 9.027 12.692-6.794 9.354-6.349 13.921-3.338 18.929 5.002 8.468 19.149 2.232 19.149 2.232zM478.58 524.353c0 0 14.817 6.349 12.365 15.821-1.449 5.565-4.454 9.011-15.811 10.68 7.46 4.803 4.562 13.481-2.79 15.15 4.009 30.966-12.145 47.892-27.617 59.372-8.914 6.559 3.671 18.365-7.132 25.713 3.901 4.46 3.231 9.467-3.236 14.597-3.779 2.893 4.234 7.235-2.109 11.141 0 0-47.114 106.358-52.014 113.93-1.556 8.141-12.252 13.143-12.252 13.143s-3.907 11.576-13.594 17.377c-3.553 50.012-19.261 65.157-34.632 65.372-15.043-13.583-15.043-35.41 18.043-72.177-2.565-11.013 3.005-21.827 3.005-21.827s-3.901-11.238 0.896-17.93c2.002-8.791 59.244-110.7 59.244-110.7-1.669-7.363 7.014-4.454 6.461-9.242-0.778-8.253 2.227-12.14 8.238-12.483-2.34-12.913 14.93-12.022 13.471-23.055-2.56-19.154-1.659-42.655 23.393-61.481-3.907-6.456 0.333-14.689 9.027-12.687-6.794-9.364-6.349-13.921-3.338-18.934 5.002-8.463 19.149-2.237 19.149-2.237z" />
<glyph unicode="&#x2749;" glyph-name="scene" d="M825.334 824.748h-626.668c-35.011 0-63.411-28.39-63.411-63.421v-626.652c0-35.041 28.401-63.421 63.411-63.421h626.668c35.031 0 63.411 28.38 63.411 63.421v626.652c0 35.031-28.38 63.421-63.411 63.421zM761.994 148.718h-457.636l401.3 28.221v523.146l-401.3 47.201h457.641v-598.569zM355.256 539.098l19.855 114.58 33.439-84.685 33.388 79.165 19.948-102.226-12.518-0.804-11.407 65.234-0.251 0.005-29.138-70.067-29.184 71.747-0.256 0.005-11.361-72.151-12.513-0.804zM499.804 592.131l-6.707 2.698c-11.116 4.69-21.176 11.013-21.187 24.248-0.015 15.38 13.911 23.475 28.611 22.303 10.829-0.86 19.738-6.369 25.042-15.217l-9.672-4.751c-3.625 5.77-8.264 8.899-15.611 9.364-7.736 0.486-16.256-4.055-16.251-12.221 0.005-7.311 7.501-11.341 13.568-13.676l6.968-2.683c13.824-5.207 24.156-12.134 24.177-26.68 0.026-15.816-13.655-28.063-31.078-29.23-15.749-1.060-28.027 9.518-30.1 24.76l12.262 2.826c-0.118-10.348 8.407-17.382 18.867-16.855s17.93 8.904 17.92 18.217c-0.015 9.528-8.417 13.64-16.809 16.896zM554.137 602.468l38.958-0.824 0.020-8.909-38.963 0.2 0.056-31.565 40.146 1.93 0.015-8.873-52.28-3.354-0.133 85.212 52.244-3.999 0.020-8.888-40.12 2.427 0.036-23.357zM653.117 450.855c0 12.15 6.712 22.011 14.981 22.011s14.961-9.861 14.961-22.011c0-12.16-6.692-22.021-14.961-22.021s-14.981 9.861-14.981 22.021z" />
<glyph unicode="&#x2756;" glyph-name="event" d="M813.269 779.201h-602.547c-49.91 0-90.373-40.458-90.373-90.378v-542.28c0-49.9 40.463-90.378 90.373-90.378h602.552c49.92 0 90.378 40.479 90.378 90.378v542.28c0 49.92-40.463 90.378-90.383 90.378zM655.41 745.301c29.292 0 53.038-23.741 53.038-53.038 0-29.261-23.752-53.002-53.038-53.002s-53.038 23.741-53.038 53.002c0 29.297 23.752 53.038 53.038 53.038zM361.675 745.301c29.286 0 53.023-23.741 53.023-53.038 0-29.261-23.741-53.002-53.023-53.002-29.297 0-53.038 23.741-53.038 53.002 0 29.297 23.741 53.038 53.038 53.038zM850.922 184.2c0-49.92-25.4-75.341-75.31-75.341h-527.227c-49.915 0-75.32 25.421-75.32 75.341v308.803h677.857v-308.803zM485.922 207.742v-31.094h-176.082l119.316 146.437c11.208 13.737 24.223 30.73 24.223 48.809 0 28.559-25.308 52.065-53.509 52.065-27.843 0-50.621-22.42-52.429-49.894h-33.987c5.427 48.445 36.879 80.988 86.415 80.988 46.28 0 86.052-34.35 86.052-81.715 0-20.25-7.593-40.494-20.244-56.038l-89.672-109.558h109.916zM564.714 318.017c-22.415 12.657-35.794 34.35-35.794 61.107 0 44.472 34.708 75.93 78.1 75.93 43.387 0 78.095-31.462 78.095-75.93 0-26.757-13.373-48.451-35.794-61.107 28.206-9.759 43.028-36.157 43.028-65.439 0-50.621-39.050-81.715-85.33-81.715s-85.33 31.094-85.33 81.715c0 29.286 14.828 55.68 43.023 65.439zM554.233 252.578c0-27.479 26.035-51.343 52.792-51.343s52.787 23.864 52.787 51.343c0 28.923-25.303 51.338-52.787 51.338s-52.792-22.415-52.792-51.338zM560.741 379.124c0-21.693 23.501-46.28 46.28-46.28 22.774 0 46.28 24.586 46.28 46.28 0 26.035-21.693 47.007-46.28 47.007s-46.28-20.972-46.28-47.007zM360.646 655.527c-11.31 0-20.48 9.17-20.48 20.48v143.36c0 11.31 9.17 20.48 20.48 20.48s20.48-9.17 20.48-20.48v-143.36c0-11.31-9.17-20.48-20.48-20.48zM657.606 655.527c-11.31 0-20.48 9.17-20.48 20.48v143.36c0 11.31 9.17 20.48 20.48 20.48s20.48-9.17 20.48-20.48v-143.36c0-11.31-9.17-20.48-20.48-20.48z" />
<glyph unicode="&#xe900;" glyph-name="lecture-line" d="M360.468 604.072h-56.633c-9.266 0-16.778 7.512-16.778 16.778s7.512 16.778 16.778 16.778h56.628zM659.376 637.628v-174.94c0-82.638-68.19-149.87-152.002-149.87-82.835 0-147.712 65.831-147.712 149.874v309.345c0 84.014 64.882 149.821 147.712 149.821 83.812 0 152.002-67.212 152.002-149.821v-134.41zM507.374 888.308c-64.014 0-114.157-51.071-114.157-116.265v-309.35c0-65.223 50.146-116.319 114.157-116.319 65.314 0 118.447 52.184 118.447 116.319v309.345c0 64.111-53.133 116.271-118.447 116.271zM768.873-18.716h-518.713v16.778c0 52.102 32.165 103.025 90.571 143.383 50.559 34.931 115.22 56.633 168.751 56.633 104.459 0 259.39-83.99 259.39-200.030v-16.764zM285.23 14.84h448.582c-15.157 84.014-140.646 149.692-224.325 149.692-83.664-0.009-209.11-65.678-224.258-149.692zM492.739 271.483h33.556v-104.085h-33.556v104.085zM658.566 637.628h56.633c9.266 0 16.778-7.512 16.778-16.778s-7.512-16.778-16.778-16.778h-56.633zM506.315 263.77c-113.802 0-202.949 90.562-202.949 206.171v134.127h14.381v-134.127c0-107.546 82.825-191.79 188.568-191.79 107.507 0 194.973 86.037 194.973 191.79v134.127h14.381v-134.127c0-113.682-93.913-206.171-209.354-206.171z" />
<glyph unicode="&#xe901;" glyph-name="document-fill" d="M192.353 847.8c0 0 437.053 0 656.686 0 186.138-97.541-265.4-664.361-2.56-795.761-299.32 0-472.858 0-673.679 0-235.786 100.035 250.281 673.408 17.28 788.966-5.002 2.478 2.273 6.794 2.273 6.794zM94.72 713.825v17.894c0 66.371 44.8 117.079 115.159 117.079h17.92v-34.56h-17.92c-38.554 0-69.868-27.233-77.527-64.625 26.916-0.036 153.011-0.425 153.011-0.425l-0.732-35.84-189.911 0.476zM822.999 52.419h-30.72v34.56h30.72c3.702 0 7.526 0.266 11.366 0.794 34.263 4.705 61.409 30.515 69.007 63.15-10.834-0.174-151.89 0.717-151.89 0.717v37.12l189.86-0.492v-18.77c0-58.839-43.894-109.24-102.098-117.233-5.458-0.748-10.921 0.154-16.246 0.154z" />
<glyph unicode="&#xe902;" glyph-name="document-line" d="M824.286 65.967h-624.203l-6.46 1.314c-123.023 52.194-62.058 218.030-3.096 378.408 43.772 119.063 89.034 242.18 57.501 309.857-10.024 21.513-27.543 36.537-53.56 45.927l9.159 30.918 620.659 1.182 7.68-1.89c91.141-47.761 44.278-187.679-5.341-335.817-55.861-166.782-113.632-339.234 5.056-398.564l-7.396-31.334zM203.58 99.050h569.708c-85.116 87.644-28.606 256.34 21.967 407.327 44.231 132.050 86.047 256.911 24.703 294.115h-563.077c8.663-9.017 15.719-19.353 21.135-30.974 37.345-80.149-10.331-209.831-56.438-335.245-55.484-150.921-107.928-293.562-17.997-335.222zM223.065 707.468c-51.188 0-51.188 0-92.715 0.056l-16.517 0.024v16.517c0 61.264 44.33 108.070 103.935 108.070l2.363-31.901c-35.587 0-64.492-25.137-71.561-59.652 24.845-0.033 32.113-0.033 74.497-0.033 18.413 0 31.324 0.236 41.703 0.426l8.498 0.147 0.506-33.078-8.403-0.147c-10.506-0.189-23.588-0.43-42.303-0.43zM806.157 66.317v31.901c3.417 0 6.947 0.246 10.491 0.733 31.627 4.343 56.684 28.167 63.697 58.291-9.996-0.165-123.661 0.662-123.661 0.662v34.264l158.709-0.454v-17.326c0-54.311-40.516-100.834-94.242-108.212-5.038-0.69-10.081 0.142-14.996 0.142z" />
<glyph unicode="&#xe903;" glyph-name="artifact-fill" d="M512.179 111.448c115.229-9.366 322.671 36.038 377.254 203.304 34.078 104.537-87.873 334.841-87.873 334.841l31.477 56.771c-62.972-43.669-286.822-42.601-320.858-41.86h4.725c-34.078-0.741-257.871-1.814-320.876 41.86l31.533-56.771c0 0-116.457-228.27-87.929-334.841 40.468-150.953 262.010-212.669 377.272-203.304zM826.318 737.774c-0.075-32.236-139.675-58.364-311.942-58.364-172.276 0-311.942 26.128-311.942 58.364 0 32.218 139.665 58.346 311.942 58.346 172.285 0.005 312.012-21.010 311.942-58.346zM883.872 430.15l-12.132 40.406c26.147 7.847 44.41 35.447 44.41 67.112 0 38.152-26.442 69.188-58.941 69.188-12.061 0-23.602-4.233-33.37-12.243l-26.752 32.621c17.4 14.269 38.19 21.811 60.122 21.811 55.763 0 101.129-49.964 101.129-111.376 0-50.143-30.619-94.361-74.466-107.518zM143.329 416.167c-36.581 17.063-75.46 62.251-75.46 112.393 0 64.487 48.324 116.95 107.72 116.95 17.457 0 34.060-4.345 49.336-12.915l-20.634-36.797c-8.902 4.988-18.558 7.518-28.702 7.518-36.136 0-65.532-33.54-65.532-74.762 0-30.099 26.423-62.645 51.103-74.157l-17.831-38.232z" />
<glyph unicode="&#xe904;" glyph-name="lecture-fill" d="M267.8-11.072c0 101.127 141.22 183.065 242.304 183.065 101.132 0 242.375-81.933 242.375-183.065h-484.679zM493.376 262.081h33.522v-103.982h-33.522v103.982zM363.544 591.667h-62.256c-9.257 0-16.761 7.504-16.761 16.761s7.504 16.761 16.761 16.761h62.256c9.257 0 16.761-7.504 16.761-16.761s-7.504-16.761-16.761-16.761zM713.133 591.667h-62.256c-9.257 0-16.761 7.504-16.761 16.761s7.504 16.761 16.761 16.761h62.256c9.257 0 16.761-7.504 16.761-16.761s-7.504-16.761-16.761-16.761zM506.938 254.375c-113.688 0-202.747 90.472-202.747 205.965v133.993h14.367v-133.993c0-107.439 82.747-191.599 188.38-191.599 107.4 0 194.779 85.951 194.779 191.599v133.993h14.367v-133.993c0-113.569-93.824-205.965-209.145-205.965zM649.369 452.19c0-76.886-64.559-139.237-141.473-139.237v0c-76.876 0-136.981 62.357-136.981 139.237v323.628c0 76.828 60.105 139.185 136.981 139.185v0c76.909 0 141.473-62.357 141.473-139.185v-323.628z" />
<glyph unicode="&#xe905;" glyph-name="weblink" d="M454.021 348.009c-10.754 0-21.504 4.101-29.708 12.305-76.861 76.861-76.861 201.925 0 278.785l155.118 155.118c37.235 37.233 86.738 57.738 139.393 57.738s102.159-20.505 139.394-57.736c76.859-76.861 76.859-201.925 0-278.785l-70.906-70.906c-16.408-16.408-43.006-16.408-59.413 0-16.406 16.406-16.406 43.007 0 59.413l70.906 70.906c44.099 44.101 44.099 115.858 0 159.959-21.363 21.363-49.768 33.128-79.979 33.128s-58.615-11.766-79.979-33.128l-155.118-155.116c-44.101-44.101-44.101-115.86 0-159.961 16.408-16.406 16.406-43.007 0-59.413-8.2-8.202-18.956-12.305-29.706-12.305zM305.176 44.045c-52.657 0-102.159 20.505-139.393 57.736-76.861 76.861-76.861 201.925 0 278.785l70.905 70.905c16.408 16.406 43.007 16.406 59.413 0 16.408-16.406 16.408-43.007 0-59.413l-70.905-70.905c-44.101-44.101-44.101-115.86 0-159.961 21.361-21.361 49.766-33.127 79.977-33.127s58.615 11.766 79.981 33.128l155.118 155.116c44.099 44.101 44.099 115.86 0 159.961-16.408 16.408-16.406 43.007 0 59.413s43.007 16.406 59.413-0.002c76.859-76.861 76.859-201.923 0.002-278.783l-155.12-155.118c-37.237-37.235-86.74-57.738-139.394-57.738z" />
<glyph unicode="&#xe906;" glyph-name="google-plus" d="M437.006 141.838c0-75.068-46.39-134.392-177.758-139.176-76.984 43.786-141.49 106.952-186.908 182.866 23.69 58.496 97.692 103.046 182.316 102.114 24.022-0.252 46.41-4.114 66.744-10.7 55.908-38.866 101-63.152 112.324-107.448 2.114-8.964 3.282-18.206 3.282-27.656zM512 960c-147.94 0-281.196-62.77-374.666-163.098 36.934 20.452 80.538 32.638 126.902 32.638 67.068 0 256.438 0 256.438 0l-57.304-60.14h-67.31c47.496-27.212 72.752-83.248 72.752-145.012 0-56.692-31.416-102.38-75.78-137.058-43.28-33.802-51.492-47.966-51.492-76.734 0-24.542 51.722-61.098 75.5-78.936 82.818-62.112 99.578-101.184 99.578-178.87 0-78.726-68.936-157.104-185.866-183.742 56.348-21.338 117.426-33.048 181.248-33.048 282.77 0 512 229.23 512 512s-229.23 512-512 512zM768 576v-128h-64v128h-128v64h128v128h64v-128h128v-64h-128zM365.768 620.528c11.922-90.776-27.846-149.19-96.934-147.134-69.126 2.082-134.806 65.492-146.74 156.242-11.928 90.788 34.418 160.254 103.53 158.196 69.090-2.074 128.22-76.542 140.144-167.304zM220.886 317.932c-74.68 0-138.128-25.768-182.842-63.864-24.502 59.82-38.044 125.29-38.044 193.932 0 56.766 9.256 111.368 26.312 162.396 7.374-99.442 77.352-176.192 192.97-176.192 8.514 0 16.764 0.442 24.874 1.022-7.95-15.23-13.622-32.19-13.622-49.982 0-29.97 16.488-47.070 36.868-66.894-15.402 0-30.27-0.418-46.516-0.418z" />
<glyph unicode="&#xe907;" glyph-name="facebook" d="M512 960c-282.77 0-512-229.23-512-512s229.23-512 512-512v384h-128v128h128v96c0 88.366 71.632 160 160 160h160v-128h-160c-17.674 0-32-14.328-32-32v-96h176l-32-128h-144v-367.87c220.828 56.838 384 257.3 384 495.87 0 282.77-229.23 512-512 512z" />
<glyph unicode="&#xe908;" glyph-name="twitter" d="M512 960c-282.77 0-512-229.23-512-512s229.23-512 512-512 512 229.23 512 512-229.23 512-512 512zM766.478 578.52c0.252-5.632 0.38-11.296 0.38-16.988 0-173.51-132.070-373.588-373.584-373.588-74.15 0-143.168 21.738-201.276 58.996 10.272-1.218 20.724-1.84 31.322-1.84 61.518 0 118.134 20.992 163.072 56.21-57.458 1.054-105.948 39.020-122.658 91.184 8.018-1.532 16.244-2.36 24.704-2.36 11.976 0 23.578 1.61 34.592 4.61-60.064 12.066-105.326 65.132-105.326 128.75 0 0.554 0 1.104 0.012 1.652 17.7-9.834 37.948-15.742 59.47-16.424-35.232 23.546-58.414 63.736-58.414 109.292 0 24.064 6.476 46.62 17.78 66.010 64.76-79.44 161.51-131.712 270.634-137.19-2.238 9.612-3.4 19.632-3.4 29.924 0 72.512 58.792 131.298 131.304 131.298 37.766 0 71.892-15.944 95.842-41.462 29.908 5.886 58.008 16.814 83.38 31.862-9.804-30.662-30.624-56.394-57.732-72.644 26.56 3.174 51.866 10.232 75.412 20.674-17.594-26.328-39.854-49.454-65.514-67.966z" />
<glyph unicode="&#xe909;" glyph-name="pinterest" d="M512.006 959.998c-282.774 0-512.006-229.23-512.006-511.996 0-216.906 134.952-402.166 325.414-476.772-4.478 40.508-8.518 102.644 1.774 146.876 9.298 39.954 60.040 254.5 60.040 254.5s-15.32 30.664-15.32 76.008c0 71.19 41.268 124.336 92.644 124.336 43.68 0 64.784-32.794 64.784-72.12 0-43.928-27.964-109.604-42.404-170.464-12.060-50.972 25.556-92.536 75.814-92.536 91.008 0 160.958 95.96 160.958 234.466 0 122.584-88.088 208.298-213.868 208.298-145.678 0-231.186-109.274-231.186-222.19 0-44.008 16.95-91.196 38.102-116.844 4.182-5.070 4.792-9.516 3.548-14.68-3.884-16.18-12.522-50.96-14.216-58.076-2.234-9.368-7.422-11.356-17.124-6.842-63.95 29.77-103.926 123.264-103.926 198.348 0 161.51 117.348 309.834 338.294 309.834 177.61 0 315.634-126.56 315.634-295.704 0-176.458-111.256-318.466-265.676-318.466-51.886 0-100.652 26.958-117.35 58.796 0 0-25.672-97.766-31.894-121.71-11.564-44.468-42.768-100.218-63.642-134.226 47.91-14.832 98.818-22.832 151.604-22.832 282.768 0.002 511.996 229.23 511.996 512 0 282.766-229.228 511.996-511.994 511.996z" />
<glyph unicode="&#xe90a;" glyph-name="artifact-line" d="M543.21 88.842c-10.167 0-20.197 0.344-30.021 1.044-115.024-7.5-351.503 48.568-396.482 216.346-27.124 101.326 61.9 293.928 84.754 340.836l-26.235 47.232c-4.778 8.601-2.995 19.36 4.298 25.963 7.294 6.597 18.171 7.307 26.259 1.702 44.774-31.032 206.438-39.873 302.751-38.354 0.776 0.089 1.561 0.131 2.36 0.131h4.74c0.799 0 1.59-0.042 2.365-0.131 96.256-1.524 257.969 7.317 302.723 38.35 8.088 5.605 18.956 4.9 26.254-1.693 7.298-6.597 9.085-17.353 4.312-25.958l-26.095-47.063c23.932-47.397 116.925-241.965 84.284-342.098-26.137-80.085-87.844-142.21-178.453-179.662-57.023-23.569-125.041-36.647-187.816-36.647zM513.928 132.265c64.716-5.008 139.732 7.040 200.931 32.335 54.964 22.718 126.368 67.821 154.38 153.675 25.737 78.937-53.887 257.357-86.738 319.445-3.343 6.32-3.268 13.906 0.197 20.159l2.995 5.403c-31.531-7.924-72.396-13.717-123.156-17.522-70.534-5.281-135.015-4.623-149.273-4.392-14.287-0.226-78.768-0.889-149.278 4.392-50.736 3.8-91.582 9.593-123.113 17.508l2.991-5.379c3.419-6.16 3.551-13.614 0.353-19.887-31.46-61.712-108.352-239.642-86.616-320.823 20.63-76.958 92.429-122.177 149.029-146.565 64.877-27.947 145.549-42.958 205.977-38.35l0.009 0.104c0.217-0.018 0.433-0.038 0.654-0.056 0.221 0.018 0.442 0.038 0.659 0.056v-0.104zM888.591 430.093l-12.171 40.536c26.231 7.872 44.552 35.56 44.552 67.327 0 38.274-26.527 69.41-59.13 69.41-12.1 0-23.677-4.246-33.477-12.283l-26.838 32.725c17.456 14.314 38.312 21.881 60.315 21.881 55.942 0 101.453-50.125 101.453-111.733 0-50.304-30.717-94.663-74.705-107.862zM138.621 416.065c-36.698 17.118-75.702 62.45-75.702 112.753 0 64.693 48.479 117.324 108.065 117.324 17.512 0 34.169-4.359 49.494-12.956l-20.7-36.915c-8.93 5.004-18.617 7.542-28.794 7.542-36.252 0-65.742-33.647-65.742-75.001 0-30.196 26.508-62.845 51.267-74.394l-17.888-38.354zM191.802 687.201c-11.686 0-21.148 9.589-21.148 21.274 0 38.293 45.53 62.686 147.623 79.088 74.141 11.912 159.647 16.139 210.34 16.139 42.403 0 256.722-2.845 311.973-59.069 13.176-13.411 15.754-27.266 15.585-36.529-0.202-11.559-9.636-20.79-21.148-20.79-0.127 0-0.253 0-0.377 0-11.686 0.202-20.997 9.842-20.79 21.528 0.009 0.635 0.042 2.558-3.461 6.127-29.937 30.467-164.416 46.409-281.783 46.409-46.664 0-126.062-3.786-196.238-14.447-109.955-16.708-119.365-38.472-119.431-38.688 0-11.686-9.457-21.044-21.148-21.044z" />
<glyph unicode="&#xe90b;" glyph-name="map-fill" d="M285.163-0.995c0 105.522 147.405 191.045 252.941 191.045 105.67 0 253.056-85.523 253.056-191.045zM528.592 258.717h19.138v-92.494h-19.138v92.494zM538.128 241.971c-214.331 0-388.701 174.37-388.701 388.701 0 103.828 40.453 201.446 113.904 274.878 6.545 6.536 17.143 6.536 23.683 0 6.54-6.54 6.54-17.143 0-23.683-67.131-67.112-104.096-156.319-104.096-251.195 0-195.868 159.348-355.21 355.21-355.21 94.991 0 184.221 36.936 251.267 103.995 6.54 6.54 17.143 6.536 23.683 0.005 6.54-6.54 6.54-17.143 0.005-23.683-73.375-73.39-171.016-113.808-274.955-113.808zM815.399 630.634c0-153.075-124.090-277.17-277.29-277.17-153.036 0-277.184 124.095-277.184 277.17 0 153.118 124.148 277.209 277.184 277.209 153.204 0 277.29-124.090 277.29-277.209zM727.192 442.053l72.595-72.576-13.53-13.53-72.609 72.591zM333.955 808.123l-72.591 72.562 13.53 13.535 72.609-72.586z" />
<glyph unicode="&#xe90c;" glyph-name="map-line" d="M801.894-16.729c-9.26 0-16.767 7.507-16.767 16.767 0 96.333-143.174 174.519-236.609 174.519-93.391 0-236.494-78.181-236.494-174.519 0-9.26-7.507-16.767-16.767-16.767s-16.767 7.507-16.767 16.767c0 54.138 33.466 107.078 94.24 149.057 52.677 36.389 120.032 58.991 175.788 58.991 108.779 0 270.143-87.36 270.143-208.053 0-9.251-7.511-16.762-16.767-16.762zM538.937 273.774h19.162v-93.248h-19.162v93.248zM745.428 449.231l72.687-72.667-13.547-13.547-72.701 72.682zM351.694 815.764l-72.682 72.653 13.547 13.552 72.701-72.678zM548.518 243.306c-214.602 0-389.192 174.59-389.192 389.192 0 103.959 40.504 201.7 114.048 275.225 6.553 6.544 17.164 6.544 23.713 0 6.549-6.549 6.549-17.164 0-23.713-67.216-67.192-104.228-156.512-104.228-251.507 0-196.115 159.549-355.658 355.658-355.658 95.111 0 184.454 36.982 251.584 104.127 6.549 6.549 17.164 6.544 23.713 0.005 6.549-6.549 6.549-17.164 0.005-23.713-73.467-73.482-171.232-113.957-275.302-113.957zM548.518 363.409c-148.368 0-269.074 120.697-269.074 269.055 0 148.377 120.707 269.094 269.074 269.094 148.416 0 269.171-120.717 269.171-269.094 0-148.358-120.755-269.055-269.171-269.055zM548.518 868.023c-129.876 0-235.54-105.674-235.54-235.56 0-129.866 105.665-235.522 235.54-235.522 129.929 0 235.637 105.655 235.637 235.522 0 129.886-105.708 235.56-235.637 235.56z" />
<glyph unicode="&#xe90d;" glyph-name="interview-line" d="M519.951 94.157c-47.375 0-138.972 16.476-194.744 53.089-0.579 0.164-2.391 0.563-6.272 0.563-16.323 0-184.11-29.517-184.11-29.517s78.044 139.771 74.798 153.272c-29.476 52.669-45.061 112.742-45.061 173.716 0 196.608 159.959 356.562 356.582 356.562s356.582-159.954 356.582-356.562c0-195.671-156.58-349.901-356.47-351.124h-1.306zM318.935 183.649c10.911 0 19.277-2.028 25.59-6.216 48.963-32.353 133.632-47.442 175.427-47.442l1.075 0.005c179.922 1.096 320.855 139.587 320.855 315.284 0 176.845-143.887 320.722-320.742 320.722s-320.742-143.877-320.742-320.722c0-54.989 14.070-109.123 40.689-156.554 14.172-25.329-7.148-65.741-41.293-124.493-0.85-1.459 98.58 19.415 119.142 19.415zM460.355 358.042c-8.509-14.628-24.202-26.86-41.754-26.86-22.6 0-36.695 15.432-43.080 35.64-6.385-1.331-12.764-1.859-19.149-1.859-56.376 0-95.473 48.399-95.473 102.646 0 56.115 41.221 101.591 98.396 101.591 55.045 0 95.739-44.416 95.739-99.195 0-34.842-14.623-66.222-42.552-86.963l11.699-16.492c4.255-5.32 8.781-11.172 16.225-11.172 5.586 0 9.042 3.19 12.764 6.922l1.331 1.331 5.852-5.591zM350.254 427.182c20.48 0 33.244-12.232 46.541-26.061 9.574 22.61 11.965 47.606 11.965 71.808 0 64.886-25.262 85.893-51.589 85.893-30.582 0-49.997-27.126-49.997-92.017 0-21.274 1.331-43.607 10.639-63.288 4.255 15.15 17.019 23.665 32.44 23.665zM348.662 416.809c-11.172 0-19.681-9.841-19.681-20.741 0-13.302 13.297-20.741 25.001-20.741 6.917 0 12.764 2.662 19.144 5.32-1.065 15.693-4.787 36.163-24.463 36.163zM577.352 564.408h23.936l-113.024-222.060h-23.665l112.753 222.060zM745.943 412.032c5.852-19.149 8.509-32.978 32.445-33.51v-8.781h-93.343v8.781c17.019 0.532 21.012 3.988 21.012 11.971 0 5.048-1.597 10.629-3.19 15.421l-9.574 31.38h-67.814l-5.852-16.748c-2.396-6.922-5.32-14.899-5.32-22.339 0-13.568 12.237-18.883 23.936-19.681v-8.781h-70.743v8.781c24.735 6.912 30.054 20.209 38.292 42.020l51.86 138.281 38.825 12.498 49.464-159.293zM662.441 535.158l-31.647-85.371h58.24l-26.593 85.371z" />
<glyph unicode="&#xe90e;" glyph-name="interview-fill" d="M358.451 557.542c-30.582 0-49.997-27.126-49.997-92.017 0-21.274 1.331-43.607 10.639-63.288 4.255 15.15 17.019 23.66 32.44 23.66 20.48 0 33.244-12.232 46.541-26.061 9.574 22.61 11.965 47.606 11.965 71.808 0 64.891-25.262 85.898-51.589 85.898zM349.942 415.529c-11.172 0-19.681-9.841-19.681-20.741 0-13.302 13.297-20.741 25.001-20.741 6.917 0 12.764 2.662 19.144 5.32-1.065 15.693-4.787 36.163-24.463 36.163zM632.074 448.507h58.24l-26.593 85.371-31.647-85.371zM521.139 801.843c-196.618 0-356.582-159.954-356.582-356.562 0-60.979 15.585-121.047 45.061-173.716 3.246-13.501-27.602-66.586-40.812-89.318-7.972-13.716-33.987-63.949-33.987-63.949s167.788 29.517 184.11 29.517c3.881 0 5.693-0.399 6.272-0.563 55.777-36.613 147.369-53.089 194.744-53.089l1.3 0.005c199.89 1.219 356.47 155.448 356.47 351.124 0.005 196.598-159.954 356.552-356.577 356.552zM419.881 329.902c-22.6 0-36.695 15.432-43.080 35.64-6.385-1.331-12.764-1.859-19.149-1.859-56.376 0-95.473 48.399-95.473 102.646 0 56.115 41.221 101.591 98.396 101.591 55.045 0 95.739-44.416 95.739-99.195 0-34.842-14.623-66.222-42.552-86.963l11.699-16.492c4.255-5.32 8.781-11.172 16.225-11.172 5.586 0 9.042 3.19 12.764 6.922l1.331 1.331 5.852-5.591c-8.509-14.633-24.197-26.86-41.754-26.86zM489.539 341.069h-23.665l112.753 222.060h23.936l-113.024-222.060zM686.326 368.461v8.781c17.019 0.532 21.012 3.988 21.012 11.971 0 5.048-1.597 10.629-3.19 15.421l-9.574 31.38h-67.814l-5.852-16.748c-2.396-6.922-5.32-14.899-5.32-22.339 0-13.568 12.237-18.883 23.936-19.681v-8.781h-70.743v8.781c24.735 6.912 30.054 20.209 38.292 42.020l51.86 138.281 38.825 12.498 49.464-159.293c5.852-19.149 8.509-32.978 32.445-33.51v-8.781h-93.343z" />
<glyph unicode="&#xe910;" glyph-name="community" d="M661.716 433.276c-31.949 0.148-103.741 99.482-103.741 99.482l47.16-211.651c0 0 41.861-115.092 56.581-115.092s114.452 201.001 114.13 226.007c-0.312 24.991-7.091 100.741-7.091 100.741s-75.080-99.651-107.039-99.487zM198.781 621.769v0.041c0.128 0 0.251-0.020 0.384-0.020s0.251 0.020 0.384 0.020v-0.041c22.559-0.215 41.062-9.62 58.757-18.785 17.905-9.257 82.816-141.553 98.084-141.916s83.062 125.594 107.715 144.302c23.404 17.756 43.131 16.62 45.071 16.456 1.94 0.159 21.668 1.3 45.082-16.456 24.648-18.703 92.442-144.66 107.709-144.302 15.278 0.358 80.179 132.659 98.089 141.916 17.802 9.216 36.393 18.698 59.141 18.806v0.020c0.067 0 0.123-0.010 0.189-0.010s0.123 0.010 0.189 0.010v-0.020c22.733-0.108 41.339-9.59 59.141-18.806 2.765-1.428 6.666-5.816 11.32-12.186-8.335 22.052-18.534 43.177-30.418 63.196-8.622-13.322-23.572-22.159-40.622-22.159-26.721 0-48.369 21.652-48.369 48.358 0 21.745 14.336 40.131 34.068 46.228-73.61 77.363-177.48 125.66-292.695 125.66-116.209 0-220.892-49.132-294.61-127.672 16.957-7.516 28.8-24.468 28.8-44.221 0-26.711-21.658-48.358-48.369-48.358-14.612 0-27.684 6.508-36.552 16.742-8.602-15.012-16.307-30.602-22.958-46.74 0.604 0.481 1.178 0.876 1.705 1.152 17.7 9.165 36.209 18.575 58.762 18.785zM508.407 728.577c26.716 0 48.369-21.652 48.369-48.379 0-26.711-21.652-48.358-48.369-48.358-26.721 0-48.369 21.652-48.369 48.358 0 26.721 21.647 48.379 48.369 48.379zM914.736 479.504c-24.177 25.984-44.728 53.248-44.728 53.248s-6.769-75.75-7.081-100.741c-0.128-10.327 16.794-50.652 37.745-94.438 9.958 35.108 15.406 72.125 15.406 110.428-0.005 10.619-0.538 21.1-1.341 31.503zM356.64 433.276c-31.954-0.164-107.044 99.482-107.044 99.482s-6.774-75.75-7.091-100.741c-0.317-25.006 99.42-226.007 114.135-226.007s56.576 115.092 56.576 115.092l47.165 211.651c0 0.005-71.788-99.328-103.741-99.476zM819.386 369.583c-15.667-1.152-92.39-175.468-121.779-175.468h-72.212c-20.111 0-50.248 114.376-67.538 114.57-16.691 0.189-46.684 0.517-48.681 0.538-1.997-0.026-31.985-0.348-48.676-0.538-17.29-0.195-47.421-114.57-67.528-114.57h-72.228c-29.271 0-105.518 172.974-121.585 175.416-7.992-1.213-30.843-44.554-55.404-87.849 63.416-140.17 204.39-237.757 368.236-237.757 161.853 0 301.409 95.196 365.911 232.617-25.846 45.276-50.391 92.447-58.516 93.041zM148.727 532.757c0 0-17.398-23.071-38.994-46.991-1.152-12.442-1.812-25.021-1.812-37.76 0-35.789 4.705-70.472 13.44-103.521 19.41 41.062 34.586 77.752 34.463 87.532-0.317 24.991-7.096 100.741-7.096 100.741z" />
<glyph unicode="&#xe913;" glyph-name="aboutmse" d="M511.992 51.488c-218.639 0-396.513 177.879-396.513 396.518 0 218.644 177.874 396.518 396.513 396.518 218.644 0 396.524-177.879 396.524-396.518 0.005-218.639-177.879-396.518-396.524-396.518zM511.992 818.93c-204.524 0-370.913-166.395-370.913-370.918s166.395-370.918 370.913-370.918c204.529 0 370.924 166.395 370.924 370.918s-166.39 370.918-370.924 370.918zM743.657 642.398h36.797c-60.283 84.050-158.746 138.86-270.065 138.86-137.83 0-256.046-83.942-306.345-203.489l80.609-184.868 115 263.7 68.362-348.959h-43.059l-39.071 221.123h-0.891l-100.347-228.224-98.012 222.925c-5.484-23.941-8.479-48.84-8.479-74.445 0-183.46 148.751-332.201 332.232-332.201 132.905 0 247.532 78.070 300.652 190.822h-67.379v334.756zM590.968 300.54c-54.18 0-96.348 39.962-103.45 93.681l42.168 8.878c-0.44-36.838 28.861-63.478 64.829-63.478 35.948 0 61.701 30.198 61.701 65.26 0 35.958-28.851 51.502-57.708 63.478l-23.091 9.779c-38.18 16.42-72.812 38.159-72.812 84.797 0 54.159 47.949 86.579 98.56 86.579 37.299 0 67.932-18.237 86.129-50.642l-33.3-19.958c-12.421 20.879-28.401 31.519-53.719 31.519-26.629 0-55.931-18.202-55.931-47.498 0-26.199 25.738-39.962 46.618-47.959l23.972-9.318c47.498-18.642 83.021-44.841 83.021-100.782 0.005-60.815-47.058-104.335-106.988-104.335zM841.705 472.357h-56.305v-126.541h40.781c10.614 32.497 16.43 67.159 16.43 103.199 0 7.859-0.374 15.626-0.906 23.342zM804.134 604.218h-18.734v-93.66h51.43c-6.231 33.229-17.372 64.712-32.696 93.66z" />
<glyph unicode="&#xe91c;" glyph-name="youtube" d="M832 832h-640.001c-105.6 0-192-86.4-192-192v-384c0-105.6 86.4-192 192-192h640.001c105.6 0 192 86.4 192 192v384c0 105.6-86.4 192-192 192zM384 192v512l320-256-320-256z" />
<glyph unicode="&#xf127;" glyph-name="lesson" d="M320 640c4 40 20 70 56 80l2 2c24 6 42 14 42 40v42c0 52 42 92 92 92s92-40 92-92v-42c0-26 18-36 42-42h4c36-10 50-40 54-80h-384zM512 832c-16 0-26-12-26-28s10-28 26-28 28 12 28 28-12 28-28 28zM810 832c30 0 54-24 54-56v-720c0-32-24-56-54-56h-594c-30 0-56 24-56 56v720c0 32 26 56 56 56h146v-26c0-22-18-38-38-38h-74c-14 0-24-12-24-26v-654c0-12 10-24 22-24h530c12 0 22 12 22 24v654c0 14-10 26-24 26h-74c-20 0-40 16-40 38v26h148zM288 512v64h224v-64h-224zM288 128v64h320v-64h-320zM288 256v64h258v-64h-258zM288 384v64h416v-64h-416z" />
<glyph unicode="&#xf12e;" glyph-name="worksheet" d="M796 622c2-6 4-12 4-20v-490c0-26-20-48-44-48h-486c-24 0-46 22-46 48v672c0 26 22 48 46 48h320c6 0 12 0 18-4 4-2 10-6 14-10l168-184c4-4 4-8 6-12zM320 602v-20c0-2 2-6 6-6h142c4 0 6 4 6 6v20c0 4-2 6-6 6h-142c-4 0-6-2-6-6zM320 346v-20c0-2 2-6 6-6h246c4 0 4 4 4 6v20c0 4 0 6-4 6h-246c-4 0-6-2-6-6zM640 198v20c0 4 0 6-4 6h-310c-4 0-6-2-6-6v-20c0-2 2-6 6-6h310c4 0 4 4 4 6zM704 454v20c0 4 0 6-4 6h-374c-4 0-6-2-6-6v-20c0-2 2-6 6-6h374c4 0 4 4 4 6zM610 604h120l-142 156v-132c0-12 10-24 22-24z" />
<glyph unicode="&#xf147;" glyph-name="visual" d="M736 512c-52 0-96 44-96 96s44 96 96 96 96-44 96-96-44-96-96-96zM904 832c32 0 56-24 56-56v-656c0-32-24-56-56-56h-784c-32 0-56 24-56 56v656c0 32 24 56 56 56h784zM698 436l198-212v520c0 14-12 24-26 24h-716c-14 0-24-10-26-24v-520l252 304c8 8 20 16 34 16s26-4 34-14l108-118 8-8c6-4 14-8 22-8s16 4 24 10l36 32c8 6 16 10 26 10s20-4 26-12z" />
<glyph unicode="&#xf148;" glyph-name="slideshow" d="M916 680c26-2 46-24 44-48l-28-526c-2-26-24-44-50-42l-660 32c-26 2-46 20-44 46l4 92-30-2c-24-2-44 14-46 36l-42 472c-2 22 14 42 38 44l592 48c24 2 44-14 46-36l10-108zM206 668c2 24 22 44 48 44l438-22-4 62h-2v2c-2 10-10 16-20 16l-522-44c-10 0-20-8-20-18v0-2l32-356 36 50zM874 196l20 396v2c0 12-10 20-22 20l-116 6-58 4-408 18c-12 0-22-8-24-18v0-2l-6-126-14-256v-14l12 14 204 218c8 8 16 12 28 12s22-6 28-14l86-98 6-6c4-4 12-8 20-8s10 2 18 6l34 24c8 6 14 8 22 8s18-4 22-10l54-66zM746 436c-40 0-70 30-70 70s32 70 70 70c40 0 70-32 70-70s-32-70-70-70z" />
<glyph unicode="&#xf149;" glyph-name="information" d="M896 454c4-248-194-450-442-454s-450 194-454 442 194 450 442 454 450-194 454-442zM448 736c-36 0-64-28-64-64s28-64 64-64 64 28 64 64-28 64-64 64zM536 170v22h-44v344h-132v-24h44v-320h-44v-22h176z" />
<glyph unicode="&#xf256;" glyph-name="video" d="M670 590v-132l226 70v-354l-226 70v-130c0-10-8-18-18-18h-634c-10 0-18 8-18 18v476c0 10 8 18 18 18h416v76c0 8-12 20-20 20h-352v96h356c72 0 130-58 130-128v-64h104c10 0 18-8 18-18zM452 278c40 0 72 32 72 72s-32 70-72 70-72-30-72-70c0-20 8-38 22-52h-136c14 14 22 32 22 52 0 40-32 72-72 72s-72-32-72-72 32-72 72-72h236z" />
<glyph unicode="&#xf259;" glyph-name="audio" horiz-adv-x="996" d="M398 144l-190 176h-208v256h208l190 176v-608zM510 248l-40 32c34 48 56 104 56 168s-22 120-56 168l40 32c40-56 66-126 66-200s-26-144-66-200zM644 156l-42 32c54 72 86 162 86 260s-32 188-86 260l42 32c60-82 96-182 96-292s-36-210-96-292z" />
<glyph unicode="&#xf357;" glyph-name="study" d="M448 832l448-222-184-120-264-170-320 204v-396l-64 32v406l-64 42zM716 448l20-164c-32-24-224-156-288-220-64 64-256 196-288 220l18 164 270-176z" />
<glyph unicode="&#xf36c;" glyph-name="ideas" d="M512 620c-50 0-100-20-136-56s-56-86-56-136c0-68 36-132 96-166l32-20v-178h128v178l32 20c30 16 54 40 70 68 18 30 26 62 26 98 0 50-20 100-56 136s-86 56-136 56zM554 896v0-128h-84v128h84zM812 788v0l60-60-76-76-60 60zM212 788v0l76-76-60-60-76 76zM512 684v0c140 0 256-116 256-256 0-96-52-178-128-222v-206h-256v206c-76 44-128 128-128 222 0 140 116 256 256 256zM960 470v0-84h-128v84h128zM192 470v0-84h-128v84h128z" />
</font>
</defs>
</svg>
